<?xml version="1.0" standalone="no"?>
<!DOCTYPE svg PUBLIC "-//W3C//DTD SVG 20010904//EN"
 "http://www.w3.org/TR/2001/REC-SVG-20010904/DTD/svg10.dtd">
<svg version="1.0" xmlns="http://www.w3.org/2000/svg"
 width="900.000000pt" height="900.000000pt" viewBox="0 0 900.000000 900.000000"
 preserveAspectRatio="xMidYMid meet">
<metadata>
Created by potrace 1.10, written by Peter Selinger 2001-2011
</metadata>
<g transform="translate(0.000000,900.000000) scale(0.100000,-0.100000)"
fill="#000000" stroke="none">
<path d="M4487 7113 c-4 -10 -22 -45 -42 -78 -19 -33 -38 -67 -42 -75 -3 -8
-18 -31 -32 -50 -14 -19 -35 -53 -46 -75 -11 -22 -31 -58 -45 -80 -37 -60 -46
-75 -76 -130 -14 -27 -35 -63 -46 -78 -11 -16 -32 -49 -46 -75 -40 -75 -45
-84 -85 -146 -21 -32 -42 -69 -47 -81 -9 -22 -69 -126 -79 -135 -4 -3 -15 -23
-26 -45 -11 -22 -32 -58 -46 -80 -15 -22 -43 -71 -64 -110 -20 -38 -46 -83
-57 -98 -11 -15 -36 -58 -55 -95 -19 -37 -41 -74 -49 -83 -8 -8 -14 -18 -14
-22 0 -3 -13 -26 -30 -50 -16 -25 -30 -48 -30 -51 0 -4 -27 -51 -60 -106 -33
-55 -60 -102 -60 -106 0 -3 -20 -37 -45 -74 -25 -37 -45 -71 -45 -75 0 -4 -27
-51 -60 -106 -33 -54 -60 -102 -60 -107 0 -5 -13 -28 -30 -50 -16 -23 -30 -46
-30 -50 0 -5 -13 -26 -30 -48 -16 -21 -30 -43 -30 -48 0 -4 -27 -52 -60 -107
-33 -54 -60 -101 -60 -104 0 -3 -20 -34 -45 -71 -25 -36 -45 -71 -45 -78 0 -6
-19 -41 -42 -77 -24 -36 -52 -84 -62 -105 -11 -21 -39 -68 -62 -104 -23 -36
-52 -85 -65 -110 -12 -25 -32 -58 -43 -75 -22 -32 -27 -40 -71 -125 -16 -30
-46 -80 -67 -111 -21 -31 -38 -60 -38 -64 0 -4 -27 -51 -60 -105 -33 -54 -60
-102 -60 -106 0 -4 -20 -37 -44 -73 -24 -37 -60 -97 -81 -136 -21 -38 -47 -83
-57 -98 -11 -15 -35 -56 -53 -91 -18 -34 -47 -82 -64 -106 -17 -24 -31 -47
-31 -53 0 -5 -27 -54 -60 -109 -33 -54 -60 -101 -60 -104 0 -3 -19 -35 -42
-72 -61 -96 -64 -102 -89 -152 -13 -25 -32 -58 -44 -75 -12 -16 -33 -50 -46
-75 -43 -82 -92 -160 -100 -160 -5 0 -9 -9 -9 -21 0 -11 -17 -46 -38 -77 -36
-53 -73 -118 -86 -152 -4 -8 -14 -27 -24 -41 -9 -15 -34 -55 -55 -90 -20 -35
-42 -71 -47 -79 -6 -8 -15 -26 -21 -40 -6 -14 -21 -39 -35 -57 -13 -17 -24
-38 -24 -47 0 -8 -5 -18 -11 -21 -5 -4 -15 -17 -20 -28 -5 -12 -18 -37 -29
-55 l-20 -33 21 6 c12 4 54 28 93 54 81 52 105 67 126 78 8 4 33 19 54 35 21
15 44 28 49 28 6 0 26 12 46 28 20 15 45 32 56 38 11 6 41 22 67 36 26 14 62
36 80 49 41 30 66 45 98 59 14 6 39 22 57 36 17 13 34 24 36 24 2 0 35 20 73
45 37 25 72 45 77 45 5 0 26 14 47 30 21 17 41 30 45 30 4 0 27 14 52 30 24
17 46 30 49 30 2 0 23 12 47 27 23 15 58 36 77 46 19 11 51 32 71 48 20 16 41
29 45 29 5 0 61 34 124 75 63 41 119 75 123 75 5 0 48 27 96 60 48 33 94 60
100 60 7 0 30 13 50 29 20 16 54 38 76 50 50 28 64 36 143 89 35 23 66 42 70
42 4 0 43 24 87 53 44 29 100 64 124 78 25 13 74 43 110 67 36 23 68 42 72 42
4 0 37 20 72 44 36 24 79 52 97 61 18 10 38 21 44 27 15 12 117 78 122 78 8 0
109 64 115 73 6 9 38 29 74 46 11 5 37 21 58 35 21 14 40 26 43 26 2 0 23 14
46 30 22 17 45 30 49 30 4 0 37 20 73 45 37 25 69 45 72 45 8 0 147 91 162
107 7 7 19 13 26 13 7 0 30 14 51 30 21 17 44 30 51 30 7 0 14 3 16 8 5 11 58
46 108 71 25 12 66 36 92 54 26 18 90 59 143 92 52 33 130 83 173 110 43 28
94 59 113 69 34 19 138 85 217 137 23 16 45 29 47 29 3 0 24 13 47 30 22 16
45 30 51 30 5 0 38 20 74 45 35 25 66 45 70 45 3 0 25 14 50 30 24 17 47 30
52 30 4 0 17 11 30 23 19 21 20 25 6 37 -8 7 -15 17 -15 22 0 5 -11 24 -23 41
-13 18 -34 52 -46 77 -13 25 -36 64 -52 88 -16 24 -29 45 -29 47 0 6 -91 157
-105 175 -7 8 -27 42 -45 75 -18 33 -53 90 -76 127 -24 37 -44 71 -44 77 0 5
-19 38 -43 73 -23 35 -51 81 -62 102 -11 22 -39 69 -62 105 -24 36 -43 71 -43
76 0 6 -14 28 -30 49 -17 22 -30 44 -30 48 0 5 -11 24 -24 41 -13 18 -37 56
-52 86 -30 56 -32 59 -77 128 -15 24 -27 45 -27 49 0 3 -20 37 -45 74 -25 37
-45 70 -45 73 0 3 -24 44 -52 92 -29 47 -64 107 -78 133 -14 26 -36 63 -50 82
-30 41 -37 54 -70 116 -14 26 -44 77 -67 113 -24 36 -43 75 -43 87 0 12 -7 27
-15 34 -8 7 -15 17 -15 23 0 5 -12 26 -26 44 -14 19 -50 80 -78 136 -54 106
-62 122 -89 172 -18 35 -42 44 -50 18z"/>
<path d="M6149 4247 c-19 -12 -52 -31 -74 -42 -22 -11 -55 -32 -73 -47 -18
-16 -37 -28 -42 -28 -5 0 -38 -20 -74 -45 -37 -25 -70 -45 -76 -45 -5 0 -24
-13 -42 -28 -18 -16 -41 -32 -51 -35 -9 -4 -55 -31 -101 -62 -46 -30 -89 -55
-94 -55 -5 0 -37 -20 -71 -45 -34 -25 -64 -45 -67 -45 -6 0 -58 -31 -153 -92
-14 -9 -44 -26 -66 -38 -22 -12 -42 -25 -45 -29 -8 -10 -112 -77 -155 -100
-22 -12 -61 -36 -87 -54 -26 -17 -90 -59 -142 -91 -53 -33 -96 -63 -96 -67 0
-4 17 -20 38 -36 33 -25 53 -37 143 -86 13 -7 49 -28 79 -48 30 -19 75 -45
100 -58 25 -13 68 -38 95 -57 28 -18 64 -39 80 -46 17 -8 56 -30 87 -51 31
-20 70 -42 85 -49 15 -7 41 -21 58 -33 37 -25 50 -33 111 -68 27 -15 63 -36
79 -47 17 -11 37 -23 45 -27 8 -4 33 -19 55 -33 66 -42 79 -49 110 -64 17 -8
53 -29 80 -45 28 -17 61 -35 74 -41 13 -6 38 -21 55 -33 35 -25 46 -32 118
-71 29 -15 67 -38 83 -50 17 -12 53 -33 80 -46 28 -13 86 -48 130 -77 44 -29
85 -53 91 -53 6 0 29 -12 51 -27 54 -38 71 -49 123 -75 24 -13 74 -42 110 -65
36 -24 70 -43 76 -43 6 0 30 -14 52 -30 23 -16 48 -30 56 -30 8 0 19 -6 23
-12 4 -7 28 -24 53 -37 25 -13 59 -34 77 -47 17 -13 35 -24 39 -24 3 0 40 -20
81 -45 40 -25 76 -45 78 -45 2 0 21 -12 42 -26 21 -14 47 -30 58 -35 11 -5 29
-15 40 -21 11 -7 50 -32 87 -55 37 -24 73 -43 81 -43 8 0 33 -14 56 -30 42
-31 72 -48 169 -99 13 -7 26 -10 28 -8 3 2 -18 41 -46 87 -28 45 -54 89 -58
98 -3 10 -18 35 -34 56 -15 21 -28 43 -28 47 0 4 -12 25 -26 46 -14 21 -30 47
-35 58 -13 27 -30 54 -55 90 -11 17 -33 55 -48 85 -29 60 -37 74 -78 133 -16
22 -28 44 -28 48 0 4 -18 35 -40 68 -22 33 -45 71 -50 83 -10 23 -15 31 -60
103 -14 22 -29 47 -33 55 -4 8 -16 29 -26 45 -11 17 -29 47 -40 67 -11 20 -34
56 -51 79 -16 23 -30 45 -30 49 0 6 -116 204 -170 290 -36 57 -160 271 -160
275 0 4 -26 45 -57 93 -32 48 -68 107 -80 132 -13 25 -38 69 -56 97 -28 46
-65 108 -141 237 -10 17 -40 68 -67 112 -27 45 -49 85 -49 89 0 4 -17 33 -38
64 -21 31 -57 89 -81 129 -23 39 -43 72 -45 72 -2 0 -18 -10 -37 -23z"/>
</g>
</svg>
