<svg version="1.1" id="Layer_1" xmlns="http://www.w3.org/2000/svg" xmlns:xlink="http://www.w3.org/1999/xlink" x="0px" y="0px"
	 width="100%" viewBox="0 0 500 500" enable-background="new 0 0 500 500" xml:space="preserve">
<path fill="#000000" opacity="1.000000" stroke="none" 
	d="
M234.000000,501.000000 
	C156.000015,501.000000 78.500038,501.000000 1.000041,501.000000 
	C1.000028,334.333405 1.000028,167.666779 1.000014,1.000131 
	C167.666565,1.000087 334.333130,1.000087 500.999756,1.000044 
	C500.999847,167.666519 500.999847,334.333038 500.999939,500.999786 
	C412.166656,501.000000 323.333344,501.000000 234.000000,501.000000 
M253.725510,104.408272 
	C252.545822,104.453629 250.664551,104.046875 250.297745,104.616066 
	C247.436523,109.056007 244.882111,113.692780 242.203568,118.251503 
	C234.495117,131.370850 226.700882,144.440414 219.076263,157.608246 
	C211.475464,170.734940 204.131973,184.010849 196.509140,197.124527 
	C185.196442,216.585907 173.698990,235.939789 162.353729,255.382355 
	C155.059097,267.883301 148.025330,280.537689 140.643234,292.986084 
	C130.613693,309.898895 120.272881,326.627045 110.237526,343.536469 
	C103.035332,355.672089 96.136108,367.987152 89.062553,380.199493 
	C81.495064,393.264679 73.847610,406.283691 66.312080,419.367188 
	C64.409393,422.670715 62.800194,426.143250 60.486881,430.646210 
	C67.366547,426.301910 73.111389,422.557159 78.968521,418.997162 
	C97.850555,407.520660 116.866646,396.262085 135.656998,384.638123 
	C157.242828,371.284821 178.616409,357.588898 200.132324,344.121887 
	C216.275986,334.017395 232.479279,324.007690 248.692719,314.015350 
	C261.820190,305.924896 275.026184,297.961792 288.152100,289.868866 
	C297.216431,284.280121 306.199890,278.560242 315.226562,272.910309 
	C323.208984,267.913971 331.212891,262.951935 339.180511,257.932251 
	C341.109192,256.717163 342.013580,255.418793 340.454254,252.924789 
	C333.177856,241.286850 325.993103,229.587631 318.999878,217.777496 
	C307.201996,197.853241 295.558655,177.837326 283.879303,157.843063 
	C276.885590,145.870300 269.854340,133.917770 263.024963,121.851471 
	C259.911346,116.350174 257.245056,110.595695 253.725510,104.408272 
M360.672089,378.910248 
	C372.987701,385.860748 385.373505,392.690460 397.598450,399.796906 
	C409.034637,406.444885 420.283661,413.414246 431.651031,420.181732 
	C435.172546,422.278259 438.811859,424.176910 443.428406,426.738251 
	C410.288818,370.939026 377.879944,316.370148 345.410431,261.699127 
	C315.634674,280.407135 286.352356,298.805115 256.708771,317.430084 
	C263.612640,321.497131 270.018250,325.271027 276.424255,329.044373 
	C285.541504,334.414734 294.687225,339.737427 303.768250,345.168427 
	C312.330933,350.289429 320.773376,355.612640 329.363770,360.685974 
	C339.544983,366.698853 349.827881,372.539551 360.672089,378.910248 
z"/>
<path fill="#FEFEFE" opacity="1.000000" stroke="none" 
	d="
M254.050690,104.682167 
	C257.245056,110.595695 259.911346,116.350174 263.024963,121.851471 
	C269.854340,133.917770 276.885590,145.870300 283.879303,157.843063 
	C295.558655,177.837326 307.201996,197.853241 318.999878,217.777496 
	C325.993103,229.587631 333.177856,241.286850 340.454254,252.924789 
	C342.013580,255.418793 341.109192,256.717163 339.180511,257.932251 
	C331.212891,262.951935 323.208984,267.913971 315.226562,272.910309 
	C306.199890,278.560242 297.216431,284.280121 288.152100,289.868866 
	C275.026184,297.961792 261.820190,305.924896 248.692719,314.015350 
	C232.479279,324.007690 216.275986,334.017395 200.132324,344.121887 
	C178.616409,357.588898 157.242828,371.284821 135.656998,384.638123 
	C116.866646,396.262085 97.850555,407.520660 78.968521,418.997162 
	C73.111389,422.557159 67.366547,426.301910 60.486881,430.646210 
	C62.800194,426.143250 64.409393,422.670715 66.312080,419.367188 
	C73.847610,406.283691 81.495064,393.264679 89.062553,380.199493 
	C96.136108,367.987152 103.035332,355.672089 110.237526,343.536469 
	C120.272881,326.627045 130.613693,309.898895 140.643234,292.986084 
	C148.025330,280.537689 155.059097,267.883301 162.353729,255.382355 
	C173.698990,235.939789 185.196442,216.585907 196.509140,197.124527 
	C204.131973,184.010849 211.475464,170.734940 219.076263,157.608246 
	C226.700882,144.440414 234.495117,131.370850 242.203568,118.251503 
	C244.882111,113.692780 247.436523,109.056007 250.297745,104.616066 
	C250.664551,104.046875 252.545822,104.453629 254.050690,104.682167 
z"/>
<path fill="#FEFEFE" opacity="1.000000" stroke="none" 
	d="
M360.369385,378.682556 
	C349.827881,372.539551 339.544983,366.698853 329.363770,360.685974 
	C320.773376,355.612640 312.330933,350.289429 303.768250,345.168427 
	C294.687225,339.737427 285.541504,334.414734 276.424255,329.044373 
	C270.018250,325.271027 263.612640,321.497131 256.708771,317.430084 
	C286.352356,298.805115 315.634674,280.407135 345.410431,261.699127 
	C377.879944,316.370148 410.288818,370.939026 443.428406,426.738251 
	C438.811859,424.176910 435.172546,422.278259 431.651031,420.181732 
	C420.283661,413.414246 409.034637,406.444885 397.598450,399.796906 
	C385.373505,392.690460 372.987701,385.860748 360.369385,378.682556 
z"/>
</svg>